<?xml version="1.0" encoding="iso-8859-1"?>
<!-- Uploaded to: SVG Repo, www.svgrepo.com, Generator: SVG Repo Mixer Tools -->
<svg fill="#000000" version="1.1" id="Capa_1" xmlns="http://www.w3.org/2000/svg"
	xmlns:xlink="http://www.w3.org/1999/xlink"
	viewBox="0 0 460 460" xml:space="preserve">
<g>
	<path d="M206.137,394.24c-10.509-3.753-12.349-13.162-12.442-13.682c-0.573-3.515-3.871-5.922-7.403-5.377
		c-3.548,0.546-5.982,3.865-5.436,7.413c0.109,0.709,2.88,17.449,20.91,23.888c0.722,0.258,1.46,0.381,2.186,0.381
		c2.669,0,5.172-1.658,6.121-4.316C211.28,399.166,209.518,395.447,206.137,394.24z"/>
	<path d="M431.238,158.627c-1.747-12.103-8.883-22.442-19.578-28.368c-20.45-11.33-45.25-10.024-64.279,2.097
		c7.34-14.207,13.902-30.903,19.194-49.162c11.97-41.303,11.464-67.946,6.999-79.107c-1.05-2.624-3.676-4.265-6.492-4.07
		c-2.819,0.199-5.186,2.196-5.857,4.94c-11.375,46.534-31.059,74.053-45.568,88.945c-10.86,11.146-20.517,17.073-25.464,19.679
		c-1.913-1.682-3.881-3.317-5.902-4.902c-2.324-1.823-5.329-3.776-8.93-5.806c-28.477-16.057-63.522-15.958-91.461,0.258
		c-2.569,1.491-4.784,2.941-6.584,4.308c-2.581,1.961-5.07,4.021-7.485,6.154c-4.939-2.599-14.609-8.527-25.487-19.691
		C129.834,79.01,110.151,51.491,98.776,4.957c-0.671-2.745-3.038-4.742-5.857-4.94c-2.818-0.2-5.442,1.447-6.492,4.07
		c-4.465,11.161-4.971,37.804,6.999,79.107c5.292,18.259,11.854,34.955,19.193,49.161c-19.029-12.12-43.83-13.425-64.278-2.096
		c-10.695,5.926-17.832,16.266-19.578,28.368s2.175,24.038,10.759,32.747l29.37,29.796c0.406,6.86,2.331,24.028,11.456,31.531
		c3.054,2.511,6.632,3.797,10.491,3.797c1.082,0,2.187-0.102,3.307-0.305c8.158-1.483,12.021-6.317,13.826-10.111
		c2.759-5.802,2.578-13.181,1.101-20.471l16.035-7.781l19.629,113.099c1.356,7.815,4.869,15.071,10.158,20.981
		c5.655,6.32,8.294,14.771,7.243,23.187l-1.858,14.867c-1.359,10.87,2.02,21.813,9.269,30.025c3.365,3.812,7.424,6.858,11.897,9.04
		C189.393,447.663,208.539,460,230,460c21.461,0,40.607-12.338,48.556-30.973c4.473-2.182,8.531-5.228,11.897-9.04
		c7.25-8.212,10.628-19.156,9.269-30.025l-1.858-14.867c-1.052-8.415,1.588-16.866,7.242-23.186
		c5.29-5.911,8.802-13.166,10.158-20.981l19.629-113.099l16.292,7.906c-1.454,7.25-1.618,14.578,1.126,20.347
		c1.804,3.794,5.667,8.628,13.826,10.111c1.121,0.204,2.225,0.305,3.307,0.305c3.858,0,7.438-1.287,10.491-3.797
		c9.264-7.616,11.107-25.193,11.473-31.834l29.072-29.492C429.063,182.665,432.984,170.73,431.238,158.627z M405.359,141.63
		c4.67,2.587,8.309,6.446,10.592,11.065c-1.361-1.006-2.791-1.934-4.293-2.767c-24.732-13.7-55.839-8.921-75.393,11.139l7.347-8.483
		C358.927,134.898,384.895,130.293,405.359,141.63z M314.975,226.595c0.7,1.707,1.093,3.627,1.093,5.604
		c0,6.361-3.942,11.734-8.608,11.734c-2.849,0-5.505-2.024-7.094-5.174C304.214,234.762,309.215,230.24,314.975,226.595z
		 M361.651,45.726c-1.584,10.43-4.139,22.034-7.563,33.849c-8.623,29.753-21.055,55.654-34.135,71.584
		c-5.382-10.126-12.094-19.564-20.017-28.088C313.919,114.867,341.85,93.464,361.651,45.726z M98.349,45.726
		c19.821,47.787,47.789,69.184,61.758,77.37c-7.856,8.523-14.552,18.022-19.946,28.203c-13.122-15.919-25.601-41.884-34.249-71.724
		C102.488,67.76,99.933,56.156,98.349,45.726z M145.032,226.58c5.54,3.503,10.487,7.902,14.6,12.184
		c-1.589,3.148-4.244,5.17-7.092,5.17c-4.666,0-8.608-5.374-8.608-11.734C143.932,230.217,144.328,228.291,145.032,226.58z
		 M54.641,141.63c20.463-11.338,46.433-6.731,61.747,10.954l7.347,8.484c-19.553-20.059-50.661-24.841-75.393-11.139
		c-1.502,0.832-2.932,1.761-4.293,2.766C46.332,148.076,49.971,144.218,54.641,141.63z M96.231,240.498
		c-0.542,1.138-1.489,2.373-4.411,2.905c-1.569,0.285-2.419-0.09-3.212-0.74c-2.521-2.068-4.321-7.008-5.438-12.339
		c2.462,0.686,5.009,1.043,7.57,1.043c2.015,0,4.038-0.222,6.035-0.66C97.398,234.705,97.337,238.173,96.231,240.498z
		 M98.157,197.171c-1.731-3.145-5.684-4.292-8.829-2.561s-4.292,5.684-2.561,8.829c2.274,4.132,4.674,9.369,6.596,14.686
		c-4.832,0.848-9.881-0.672-13.45-4.292L48.78,182.248c-2.38-2.415-4.213-5.207-5.465-8.221c2.205-5.388,6.159-9.863,11.328-12.726
		c20.458-11.336,46.428-6.726,61.748,10.958l11.273,13.014c-1.322,5.972-2.238,12.047-2.725,18.188l-19.57,9.497
		C102.585,205.483,99.386,199.406,98.157,197.171z M157.545,328.705l-12.742-73.418c2.404,1.059,5.012,1.646,7.738,1.646
		c6.149,0,11.828-2.99,15.821-7.891c2.513,3.342,3.939,5.62,4.001,5.72c1.227,1.998,3.36,3.1,5.545,3.1
		c1.158,0,2.331-0.31,3.39-0.959c3.061-1.876,4.021-5.878,2.146-8.938c-0.816-1.331-19.14-30.796-45.813-39.135
		c0.287-6.766,1.147-13.463,2.555-20.022l13.61,4.126c25.654,7.777,43.246,31.928,42.779,58.73l-0.521,29.946
		c-0.431,24.79-6.792,49.475-18.395,71.386l-3.827,7.228c-1.716-6.229-4.841-12.057-9.25-16.984
		C160.917,339.145,158.484,334.119,157.545,328.705z M230,447c-12.413,0-23.768-5.368-31.078-14.091h62.155
		C253.768,441.632,242.414,447,230,447z M280.707,411.384c-4.783,5.418-11.671,8.525-18.898,8.525h-63.617
		c-7.227,0-14.115-3.107-18.898-8.525c-4.783-5.418-7.012-12.639-6.116-19.81l0.382-3.058l15.587-29.435
		c12.556-23.709,19.438-50.42,19.905-77.244l0.521-29.946c0.567-32.584-20.819-61.944-52.006-71.398l-13.973-4.236
		c7.589-22.989,21.994-43.58,41.587-58.467c1.374-1.044,3.138-2.193,5.245-3.416c23.972-13.913,54.07-13.981,78.551-0.177
		c3.03,1.708,5.484,3.294,7.293,4.712c19.138,15.007,32.956,34.929,40.263,57.309l-14.1,4.275
		c-31.187,9.454-52.573,38.814-52.006,71.398l0.521,29.945c0.466,26.824,7.349,53.535,19.905,77.245l15.587,29.435l0.382,3.058
		C287.719,398.745,285.49,405.966,280.707,411.384z M302.455,328.705c-0.939,5.414-3.373,10.44-7.038,14.536
		c-4.408,4.927-7.534,10.755-9.249,16.984l-3.827-7.227c-11.604-21.912-17.964-46.597-18.395-71.387l-0.521-29.945
		c-0.466-26.803,17.125-50.954,42.779-58.731l13.682-4.148c1.374,6.54,2.21,13.239,2.487,20.043
		c-26.676,8.337-45.002,37.805-45.818,39.136c-1.876,3.061-0.916,7.063,2.146,8.938c1.06,0.649,2.232,0.959,3.39,0.959
		c2.187,0,4.322-1.104,5.548-3.105c0.025-0.041,1.44-2.329,3.991-5.724c3.994,4.906,9.676,7.901,15.829,7.901
		c2.726,0,5.334-0.587,7.738-1.646L302.455,328.705z M371.673,242.662c-0.793,0.651-1.642,1.024-3.212,0.74
		c-2.921-0.531-3.868-1.765-4.41-2.902c-1.1-2.309-1.162-5.757-0.546-9.739c1.905,0.398,3.833,0.604,5.754,0.604
		c2.665,0,5.314-0.384,7.868-1.125C376.012,235.604,374.207,240.583,371.673,242.662z M380.086,213.832
		c-3.499,3.551-8.426,5.084-13.174,4.341c1.923-5.332,4.326-10.589,6.603-14.738c1.729-3.145,0.582-7.095-2.563-8.826
		c-3.144-1.73-7.097-0.584-8.829,2.561c-1.236,2.246-4.461,8.375-7.254,15.903l-19.791-9.604
		c-0.473-6.194-1.369-12.299-2.669-18.282l11.199-12.928c15.32-17.684,41.288-22.293,61.749-10.959
		c5.168,2.863,9.123,7.338,11.328,12.726c-1.253,3.014-3.085,5.806-5.465,8.221L380.086,213.832z"/>
	<path d="M273.714,375.147c-3.549-0.549-6.861,1.854-7.407,5.402c-0.071,0.403-1.865,9.912-12.444,13.691
		c-3.381,1.207-5.143,4.927-3.935,8.307c0.949,2.659,3.452,4.316,6.121,4.316c0.726,0,1.464-0.123,2.186-0.381
		c18.029-6.439,20.801-23.179,20.91-23.888C279.691,379.046,277.263,375.693,273.714,375.147z"/>
	<path d="M230,152.126c-9.33,0-16.92,7.59-16.92,16.919s7.59,16.92,16.92,16.92s16.919-7.59,16.919-16.92
		S239.33,152.126,230,152.126z M230,172.966c-2.162,0-3.92-1.758-3.92-3.92c0-2.161,1.758-3.919,3.92-3.919
		c2.161,0,3.919,1.758,3.919,3.919C233.92,171.207,232.161,172.966,230,172.966z"/>
	<path d="M230,212.82c-5.308,0-9.626,4.318-9.626,9.626s4.318,9.626,9.626,9.626s9.625-4.318,9.625-9.626S235.308,212.82,230,212.82
		z M230,225.82c-1.861,0-3.375-1.514-3.375-3.374s1.514-3.374,3.375-3.374c1.86,0,3.374,1.514,3.374,3.374
		S231.861,225.82,230,225.82z"/>
	<path d="M230,132.825c5.308,0,9.625-4.318,9.625-9.626s-4.318-9.626-9.625-9.626s-9.626,4.318-9.626,9.626
		S224.693,132.825,230,132.825z M230,119.825c1.86,0,3.374,1.514,3.374,3.374c0,1.86-1.514,3.374-3.374,3.374
		c-1.861,0-3.375-1.513-3.375-3.374C226.626,121.339,228.14,119.825,230,119.825z"/>
</g>
</svg>